<svg width="20" height="20" viewBox="0 0 20 20" fill="none" xmlns="http://www.w3.org/2000/svg">
<path d="M18.0917 16.9083L15 13.8417C16.2001 12.3454 16.7813 10.4461 16.624 8.53443C16.4668 6.62276 15.5831 4.844 14.1546 3.56388C12.7262 2.28377 10.8615 1.5996 8.94411 1.65207C7.02671 1.70454 5.20228 2.48965 3.84596 3.84596C2.48965 5.20228 1.70454 7.02671 1.65207 8.94411C1.5996 10.8615 2.28377 12.7262 3.56388 14.1546C4.844 15.5831 6.62276 16.4668 8.53443 16.624C10.4461 16.7813 12.3454 16.2001 13.8417 15L16.9083 18.0667C16.9858 18.1448 17.078 18.2068 17.1795 18.2491C17.2811 18.2914 17.39 18.3132 17.5 18.3132C17.61 18.3132 17.7189 18.2914 17.8205 18.2491C17.922 18.2068 18.0142 18.1448 18.0917 18.0667C18.2419 17.9113 18.3258 17.7036 18.3258 17.4875C18.3258 17.2714 18.2419 17.0637 18.0917 16.9083ZM9.16668 15C8.01295 15 6.88514 14.6579 5.92585 14.0169C4.96657 13.3759 4.21889 12.4649 3.77738 11.399C3.33587 10.3331 3.22035 9.16021 3.44543 8.02865C3.67051 6.8971 4.22608 5.8577 5.04189 5.04189C5.8577 4.22608 6.8971 3.67051 8.02865 3.44543C9.16021 3.22035 10.3331 3.33587 11.399 3.77738C12.4649 4.21889 13.3759 4.96657 14.0169 5.92585C14.6579 6.88514 15 8.01295 15 9.16668C15 10.7138 14.3854 12.1975 13.2915 13.2915C12.1975 14.3854 10.7138 15 9.16668 15Z" fill="black"/>
</svg>
